<svg width="371" height="272" viewBox="0 0 371 272" fill="none" xmlns="http://www.w3.org/2000/svg">
<path d="M202 4H206V0H202V4ZM202 4.00029H198V8.00029H202V4.00029ZM301 4.00029V8.00029H305V4.00029H301ZM301 4.00001L301 5.28067e-06L297 4.88328e-06V4.00001H301ZM334 70V74H338V70H334ZM301 70V66H297V70H301ZM301 70.0003V74.0003H305V70.0003H301ZM267.83 70.0003V66.0003L267.82 66.0003L267.83 70.0003ZM268 202L268 206H268V202ZM334 202L334 206L334 206L334 202ZM367 202H371V198L367 198L367 202ZM334 268L334 272L334 272L334 268ZM136 268H132V272H136V268ZM136 136H140V132H136V136ZM70 268V272H74V268H70ZM70 136H66V140H70V136ZM136 70H140V66H136V70ZM70 70V66H66V70H70ZM136 0H70V8H136V0ZM202 0H136V8H202V0ZM206 4.00029V4H198V4.00029H206ZM268 0.000285173H202V8.00029H268V0.000285173ZM301 0.000285173H268V8.00029H301V0.000285173ZM297 4.00001V4.00029H305V4.00001H297ZM338 37C338 16.5655 321.435 7.31079e-06 301 5.28067e-06L301 8.00001C317.016 8.00001 330 20.9837 330 37H338ZM338 70V37H330V70H338ZM301 74H334V66H301V74ZM305 70.0003V70H297V70.0003H305ZM268 74.0003H301V66.0003H268V74.0003ZM267.83 74.0003H268V66.0003H267.83V74.0003ZM206 136C206 101.812 233.672 74.0863 267.84 74.0003L267.82 66.0003C229.243 66.0974 198 97.4001 198 136H206ZM268 198C233.758 198 206 170.242 206 136H198C198 174.66 229.34 206 268 206L268 198ZM334 198H268V206H334V198ZM367 198L334 198L334 206L367 206L367 198ZM371 235V202H363V235H371ZM334 272C354.435 272 371 255.435 371 235H363C363 251.016 350.016 264 334 264L334 272ZM268 272H334V264H268V272ZM202 272H268V264H202V272ZM201.909 272C201.922 272 201.935 272 201.951 272C201.965 272 201.983 272 202 272V264C201.987 264 201.974 264 201.959 264C201.944 264 201.927 264 201.909 264V272ZM201.909 264H136V272H201.909V264ZM140 268V202H132V268H140ZM140 202V198H132V202H140ZM132 136V198H140V136H132ZM74 202C74 167.758 101.758 140 136 140V132C97.3401 132 66 163.34 66 202H74ZM74 235V202H66V235H74ZM74 268V235H66V268H74ZM37 272H70V264H37V272ZM0 235C0 255.435 16.5655 272 37 272V264C20.9837 264 8 251.016 8 235H0ZM0 202V235H8V202H0ZM0 136V202H8V136H0ZM0 70V136H8V70H0ZM70 0C31.3401 0 0 31.3401 0 70H8C8 35.7583 35.7583 8 70 8V0ZM70 140C108.66 140 140 108.66 140 70H132C132 104.242 104.242 132 70 132V140ZM66 70V136H74V70H66ZM136 66H70V74H136V66Z" fill="black"/>
</svg>
