<svg width="363" height="264" viewBox="0 0 363 264" fill="none" xmlns="http://www.w3.org/2000/svg">
<rect x="198" y="198" width="66" height="66" fill="black"/>
<rect x="264" y="198" width="66" height="66" fill="black"/>
<rect x="264" y="0.000274658" width="33" height="66" fill="black"/>
<rect x="198" y="0.000274658" width="66" height="66" fill="black"/>
<path fill-rule="evenodd" clip-rule="evenodd" d="M198 66.0001H264C227.549 66.0001 198 95.5493 198 132V66.0001ZM264 198H198V132C198 168.451 227.549 198 264 198Z" fill="black"/>
<path fill-rule="evenodd" clip-rule="evenodd" d="M363 231C363 249.225 348.225 264 330 264L330 231L330 198C348.225 198 363 212.775 363 231Z" fill="black"/>
<path fill-rule="evenodd" clip-rule="evenodd" d="M330 33C330 14.7746 315.225 -4.35277e-06 297 -6.16342e-06L297 33L330 33Z" fill="black"/>
<rect x="330" y="198" width="33" height="33" fill="black"/>
<rect x="297" y="33" width="33" height="33" fill="black"/>
<rect y="66" width="66" height="66" fill="black"/>
<rect y="132" width="66" height="66" fill="black"/>
<rect y="198" width="66" height="33" fill="black"/>
<rect x="66" width="66" height="66" fill="black"/>
<rect x="132" width="66" height="66" fill="black"/>
<rect x="132" y="66" width="66" height="66" fill="black"/>
<rect x="132" y="132" width="66" height="66" fill="black"/>
<path fill-rule="evenodd" clip-rule="evenodd" d="M66 0C29.5492 0 0 29.5492 0 66H66V0Z" fill="black"/>
<path fill-rule="evenodd" clip-rule="evenodd" d="M198 264V198L132 198C132 234.451 161.549 264 198 264Z" fill="black"/>
<path fill-rule="evenodd" clip-rule="evenodd" d="M132 66C132 102.451 102.451 132 66 132V198C66 161.549 95.5492 132 132 132L132 66Z" fill="black"/>
<path fill-rule="evenodd" clip-rule="evenodd" d="M33 264C51.2254 264 66 249.225 66 231L33 231L-1.44248e-06 231C-6.45818e-07 249.225 14.7746 264 33 264Z" fill="black"/>
<rect x="33" y="231" width="33" height="33" fill="black"/>
<rect x="132" y="194" width="70" height="70" fill="black"/>
</svg>
