<svg width="110" height="45" viewBox="0 0 110 45" fill="none" xmlns="http://www.w3.org/2000/svg">
<rect width="110" height="45" rx="8" fill="#016FB9"/>
<path d="M15.16 31L25.288 13.72H28.72L19.096 31H15.16ZM28 31L26.272 13.72H29.416L31.672 31H28ZM19.96 24.304H29.656L28.984 27.184H19.288L19.96 24.304ZM38.8186 31.312C37.6666 31.312 36.6586 31.144 35.7946 30.808C34.9306 30.456 34.2586 29.968 33.7786 29.344C33.2986 28.72 33.0666 28 33.0826 27.184H36.2986C36.2986 27.536 36.4026 27.84 36.6106 28.096C36.8186 28.352 37.1226 28.552 37.5226 28.696C37.9226 28.824 38.4026 28.888 38.9626 28.888C39.6666 28.888 40.1946 28.784 40.5466 28.576C40.9146 28.368 41.0986 28.064 41.0986 27.664C41.0986 27.392 41.0026 27.168 40.8106 26.992C40.6346 26.816 40.3466 26.656 39.9466 26.512L38.0986 25.888C36.8506 25.472 35.9626 25.008 35.4346 24.496C34.9226 23.968 34.6666 23.312 34.6666 22.528C34.6666 21.712 34.8906 21.008 35.3386 20.416C35.7866 19.808 36.4106 19.344 37.2106 19.024C38.0106 18.688 38.9466 18.52 40.0186 18.52C41.0746 18.52 41.9946 18.68 42.7786 19C43.5786 19.304 44.2026 19.736 44.6506 20.296C45.0986 20.84 45.3146 21.472 45.2986 22.192H42.0826C42.0986 21.92 42.0186 21.688 41.8426 21.496C41.6666 21.304 41.4106 21.16 41.0746 21.064C40.7386 20.968 40.3306 20.92 39.8506 20.92C39.1946 20.92 38.7066 21.008 38.3866 21.184C38.0666 21.36 37.9066 21.624 37.9066 21.976C37.9066 22.232 38.0106 22.44 38.2186 22.6C38.4426 22.76 38.8346 22.936 39.3946 23.128L41.4346 23.824C42.3946 24.144 43.1146 24.592 43.5946 25.168C44.0906 25.728 44.3386 26.416 44.3386 27.232C44.3386 28.048 44.1066 28.768 43.6426 29.392C43.1786 30 42.5306 30.472 41.6986 30.808C40.8826 31.144 39.9226 31.312 38.8186 31.312ZM45.3443 31L49.3283 13.72H52.9283L48.9443 31H45.3443ZM53.8643 31L55.5203 23.728C55.6963 22.928 55.6483 22.336 55.3763 21.952C55.1203 21.552 54.6403 21.352 53.9363 21.352C53.0883 21.352 52.3523 21.624 51.7283 22.168C51.1203 22.712 50.6883 23.488 50.4323 24.496L50.7923 21.544C51.2883 20.632 51.9923 19.904 52.9043 19.36C53.8163 18.8 54.7683 18.52 55.7603 18.52C57.1363 18.52 58.1363 18.968 58.7603 19.864C59.4003 20.76 59.5523 21.944 59.2163 23.416L57.4643 31H53.8643ZM60.2037 31L64.1877 13.72H67.7877L63.8037 31H60.2037ZM72.8404 31.24C71.7844 31.24 70.8164 31.04 69.9364 30.64C69.0724 30.224 68.3844 29.616 67.8724 28.816C67.3604 28 67.1044 27 67.1044 25.816C67.1044 25.064 67.2084 24.336 67.4164 23.632C67.6404 22.912 67.9604 22.248 68.3764 21.64C68.7924 21.016 69.2964 20.472 69.8884 20.008C70.4964 19.544 71.1764 19.184 71.9284 18.928C72.6804 18.656 73.5044 18.52 74.4004 18.52C75.4404 18.52 76.3924 18.712 77.2564 19.096C78.1204 19.48 78.8084 20.056 79.3204 20.824C79.8324 21.576 80.0884 22.528 80.0884 23.68C80.0884 24.176 80.0324 24.624 79.9204 25.024C79.8244 25.424 79.6884 25.736 79.5124 25.96H69.1204L69.6244 23.584H77.1844L76.4884 24.304C76.5844 23.936 76.6244 23.568 76.6084 23.2C76.5924 22.816 76.4964 22.472 76.3204 22.168C76.1604 21.848 75.9124 21.592 75.5764 21.4C75.2404 21.208 74.8004 21.112 74.2564 21.112C73.6964 21.112 73.2084 21.216 72.7924 21.424C72.3924 21.616 72.0484 21.88 71.7604 22.216C71.4884 22.552 71.2644 22.928 71.0884 23.344C70.9124 23.76 70.7844 24.184 70.7044 24.616C70.6404 25.048 70.6084 25.456 70.6084 25.84C70.6084 26.864 70.8404 27.592 71.3044 28.024C71.7684 28.44 72.3924 28.648 73.1764 28.648C73.8324 28.648 74.3684 28.536 74.7844 28.312C75.2004 28.072 75.5204 27.776 75.7444 27.424H79.0804C78.5364 28.624 77.7044 29.56 76.5844 30.232C75.4804 30.904 74.2324 31.24 72.8404 31.24ZM79.3096 35.92L84.4216 28.432L85.2856 27.4L90.4456 18.76H94.5976L83.2216 35.92H79.3096ZM83.3896 30.76L81.4696 18.76H85.2136L86.5336 29.704L83.3896 30.76Z" fill="white"/>
</svg>
