<svg width="286" height="286" viewBox="0 0 286 286" fill="none" xmlns="http://www.w3.org/2000/svg">
<path d="M250.25 53.625H35.75C31.0093 53.625 26.4627 55.5083 23.1105 58.8605C19.7583 62.2127 17.875 66.7593 17.875 71.5V214.5C17.875 219.241 19.7583 223.787 23.1105 227.14C26.4627 230.492 31.0093 232.375 35.75 232.375H250.25C254.991 232.375 259.537 230.492 262.89 227.14C266.242 223.787 268.125 219.241 268.125 214.5V71.5C268.125 66.7593 266.242 62.2127 262.89 58.8605C259.537 55.5083 254.991 53.625 250.25 53.625ZM230.587 71.5L143 132.096L55.4125 71.5H230.587ZM35.75 214.5V79.6331L137.906 150.329C139.402 151.367 141.179 151.923 143 151.923C144.821 151.923 146.598 151.367 148.094 150.329L250.25 79.6331V214.5H35.75Z" fill="#007EA8"/>
</svg>
