<svg width="33" height="27" viewBox="0 0 33 27" fill="none" xmlns="http://www.w3.org/2000/svg">
<path d="M3.03958 26.8846C2.19983 26.8846 1.49922 26.5901 0.937761 26.0012C0.376302 25.4123 0.0949653 24.6768 0.09375 23.7947V3.20529C0.09375 2.32446 0.375087 1.58958 0.937761 1.00065C1.50043 0.41173 2.20043 0.116631 3.03776 0.115356H29.9622C30.8008 0.115356 31.5008 0.410455 32.0622 1.00065C32.6237 1.59085 32.905 2.32573 32.9062 3.20529V23.7966C32.9062 24.6761 32.6249 25.411 32.0622 26.0012C31.4996 26.5914 30.7996 26.8859 29.9622 26.8846H3.03958ZM31.0833 3.71964L17.3167 13.173C17.1878 13.2431 17.0578 13.3024 16.9266 13.3508C16.7941 13.398 16.6519 13.4216 16.5 13.4216C16.3481 13.4216 16.2059 13.398 16.0734 13.3508C15.941 13.3037 15.8109 13.2444 15.6833 13.173L1.91667 3.71773V23.7947C1.91667 24.1388 2.02179 24.4212 2.23203 24.6417C2.44227 24.8622 2.71146 24.9725 3.03958 24.9725H29.9622C30.2891 24.9725 30.5577 24.8622 30.768 24.6417C30.9782 24.4212 31.0833 24.1388 31.0833 23.7947V3.71964ZM16.5 11.5879L30.5219 2.02744H2.47813L16.5 11.5879ZM1.91667 4.12309V2.57239V2.6374V2.02744V2.63931V2.53988V4.12309Z" fill="#016FB9"/>
</svg>
