<svg width="195" height="195" viewBox="0 0 195 195" fill="none" xmlns="http://www.w3.org/2000/svg">
<path d="M179.656 0.40625H15.3438C11.3821 0.40625 7.58267 1.98002 4.78134 4.78134C1.98002 7.58267 0.40625 11.3821 0.40625 15.3438V179.656C0.40625 183.618 1.98002 187.417 4.78134 190.219C7.58267 193.02 11.3821 194.594 15.3438 194.594H179.656C183.618 194.594 187.417 193.02 190.219 190.219C193.02 187.417 194.594 183.618 194.594 179.656V15.3438C194.594 11.3821 193.02 7.58267 190.219 4.78134C187.417 1.98002 183.618 0.40625 179.656 0.40625ZM179.656 179.656H15.3438V15.3438H179.656V179.656ZM67.625 82.5625V142.312C67.625 144.293 66.8381 146.193 65.4375 147.594C64.0368 148.994 62.1371 149.781 60.1562 149.781C58.1754 149.781 56.2757 148.994 54.875 147.594C53.4744 146.193 52.6875 144.293 52.6875 142.312V82.5625C52.6875 80.5817 53.4744 78.682 54.875 77.2813C56.2757 75.8806 58.1754 75.0938 60.1562 75.0938C62.1371 75.0938 64.0368 75.8806 65.4375 77.2813C66.8381 78.682 67.625 80.5817 67.625 82.5625ZM149.781 108.703V142.312C149.781 144.293 148.994 146.193 147.594 147.594C146.193 148.994 144.293 149.781 142.312 149.781C140.332 149.781 138.432 148.994 137.031 147.594C135.631 146.193 134.844 144.293 134.844 142.312V108.703C134.844 103.751 132.877 99.0018 129.375 95.5001C125.873 91.9985 121.124 90.0312 116.172 90.0312C111.22 90.0312 106.471 91.9985 102.969 95.5001C99.4672 99.0018 97.5 103.751 97.5 108.703V142.312C97.5 144.293 96.7131 146.193 95.3125 147.594C93.9118 148.994 92.0121 149.781 90.0312 149.781C88.0504 149.781 86.1507 148.994 84.75 147.594C83.3494 146.193 82.5625 144.293 82.5625 142.312V82.5625C82.5718 80.7331 83.2522 78.9707 84.4746 77.6096C85.6971 76.2486 87.3766 75.3835 89.1945 75.1786C91.0124 74.9737 92.8424 75.4431 94.3372 76.4978C95.8319 77.5526 96.8876 79.1193 97.3039 80.9007C102.356 77.4732 108.247 75.4868 114.343 75.1546C120.44 74.8225 126.511 76.1572 131.906 79.0154C137.301 81.8737 141.816 86.1475 144.965 91.3779C148.114 96.6083 149.779 102.598 149.781 108.703ZM71.3594 56.4219C71.3594 58.6376 70.7023 60.8037 69.4713 62.646C68.2403 64.4883 66.4906 65.9243 64.4435 66.7722C62.3964 67.6202 60.1438 67.842 57.9706 67.4097C55.7974 66.9775 53.8012 65.9105 52.2344 64.3437C50.6677 62.7769 49.6007 60.7807 49.1684 58.6075C48.7361 56.4343 48.958 54.1817 49.8059 52.1346C50.6538 50.0875 52.0898 48.3378 53.9321 47.1068C55.7745 45.8758 57.9405 45.2188 60.1562 45.2188C63.1275 45.2188 65.9771 46.3991 68.0781 48.5001C70.1791 50.6011 71.3594 53.4506 71.3594 56.4219Z" fill="#007EA8"/>
</svg>
