<svg width="33" height="33" viewBox="0 0 33 33" fill="none" xmlns="http://www.w3.org/2000/svg">
<path d="M9.85714 13.1786V24.25M23.1429 24.25V18.7143C23.1429 17.5398 22.6763 16.4133 21.8458 15.5828C21.0152 14.7523 19.8888 14.2857 18.7143 14.2857C17.5398 14.2857 16.4133 14.7523 15.5828 15.5828C14.7523 16.4133 14.2857 17.5398 14.2857 18.7143V24.25V13.1786M8.75 9.85714H10.9643M3.21429 1H29.7857C30.373 1 30.9362 1.23329 31.3515 1.64855C31.7667 2.06381 32 2.62702 32 3.21429V29.7857C32 30.373 31.7667 30.9362 31.3515 31.3515C30.9362 31.7667 30.373 32 29.7857 32H3.21429C2.62702 32 2.06381 31.7667 1.64855 31.3515C1.23329 30.9362 1 30.373 1 29.7857V3.21429C1 2.62702 1.23329 2.06381 1.64855 1.64855C2.06381 1.23329 2.62702 1 3.21429 1Z" stroke="#016FB9" stroke-width="2"/>
</svg>
