<svg width="1272" height="950" viewBox="0 0 1272 950" fill="none" xmlns="http://www.w3.org/2000/svg">
<mask id="path-1-outside-1_47_80" maskUnits="userSpaceOnUse" x="0" y="-6.10352e-05" width="1272" height="950" fill="black">
<rect fill="white" y="-6.10352e-05" width="1272" height="950"/>
<path fill-rule="evenodd" clip-rule="evenodd" d="M1119.55 152.454C1119.55 94.601 1073.82 47.4261 1016.54 45.0906V45H1012.15L1012.09 44.9999L904.636 45H816.668H689.727H574.756H474.818H259.909H255.455V45.0452C140.766 47.3769 48.1361 139.553 45.078 254.063H45V259.909V474.818V689.727V797.182C45.0001 856.527 93.1091 904.636 152.455 904.636H259.909V797.182V689.727V662.923C273.211 556.971 364.336 474.956 474.818 474.818V689.727V904.636H689.727L904.636 904.637H1123.16L1126.78 904.636V904.396C1182.21 900.71 1226.13 855.004 1226.99 798.852H1227V797.182V689.727H1126.78L1119.55 689.727L1096.44 689.727H889.017C782.464 682.104 697.355 597.101 689.727 490.684V474.818V459.509C697.724 347.941 790.886 259.909 904.636 259.909H1012.09H1016.54H1119.55V152.454ZM474.818 270.894V259.909H259.909V474.812C375.196 473.95 469.075 383.935 474.818 270.894Z"/>
</mask>
<path d="M1016.54 45.0906H971.545V88.2932L1014.71 90.0532L1016.54 45.0906ZM1016.54 45H1061.54V-4.40442e-05H1016.54V45ZM1012.15 45L1012.14 90H1012.15V45ZM1012.09 44.9999L1012.1 -6.10371e-05L1012.09 -6.10352e-05L1012.09 44.9999ZM904.636 45L904.636 90L904.636 90L904.636 45ZM255.455 45V-4.40442e-05H210.455V45H255.455ZM255.455 45.0452L256.37 90.0359L300.455 89.1397V45.0452H255.455ZM45.078 254.063V299.063H88.8922L90.0619 255.264L45.078 254.063ZM45 254.063V209.063H0V254.063H45ZM45 797.182L0 797.182L0 797.182L45 797.182ZM152.455 904.636L152.454 949.636H152.455V904.636ZM259.909 904.636V949.636H304.909V904.636H259.909ZM259.909 662.923L215.26 657.318L214.909 660.11V662.923H259.909ZM474.818 474.818H519.818V429.762L474.762 429.818L474.818 474.818ZM474.818 904.636H429.818V949.636H474.818V904.636ZM689.727 904.636L689.727 859.636H689.727V904.636ZM904.636 904.637L904.636 949.637H904.636V904.637ZM1123.16 904.637L1123.16 949.637L1123.17 949.637L1123.16 904.637ZM1126.78 904.636L1126.79 949.636L1171.78 949.633V904.636H1126.78ZM1126.78 904.396L1123.8 859.496L1081.78 862.29V904.396H1126.78ZM1226.99 798.852V753.852H1182.67L1181.99 798.166L1226.99 798.852ZM1227 798.852V843.852H1272V798.852H1227ZM1227 689.727H1272V644.727H1227V689.727ZM1126.78 689.727L1126.78 644.727L1126.78 644.727L1126.78 689.727ZM1119.55 689.727L1119.55 734.727L1119.55 734.727L1119.55 689.727ZM1096.44 689.727L1096.44 644.727H1096.44V689.727ZM889.017 689.727L885.806 734.613L887.409 734.727H889.017V689.727ZM689.727 490.684H644.727V492.295L644.842 493.901L689.727 490.684ZM689.727 459.509L644.842 456.292L644.727 457.898V459.509H689.727ZM904.636 259.909L904.636 214.909L904.636 214.909L904.636 259.909ZM1119.55 259.909V304.909H1164.55V259.909H1119.55ZM474.818 270.894L519.76 273.178L519.818 272.037V270.894H474.818ZM474.818 259.909H519.818V214.909H474.818V259.909ZM259.909 259.909V214.909H214.909V259.909H259.909ZM259.909 474.812H214.909V520.15L260.245 519.811L259.909 474.812ZM1014.71 90.0532C1047.97 91.4093 1074.55 118.84 1074.55 152.454H1164.55C1164.55 70.3622 1099.68 3.44279 1018.38 0.127935L1014.71 90.0532ZM971.545 45V45.0906H1061.54V45H971.545ZM1012.15 90H1016.54V-4.40442e-05H1012.15V90ZM1012.08 89.9999L1012.14 90L1012.16 -4.23041e-05L1012.1 -5.9295e-05L1012.08 89.9999ZM904.636 90L1012.09 89.9999L1012.09 -6.10352e-05L904.636 -4.40442e-05L904.636 90ZM816.668 90H904.636V-4.40442e-05H816.668V90ZM689.727 90H816.668V-4.40442e-05H689.727V90ZM574.756 90H689.727V-4.40442e-05H574.756V90ZM474.818 90H574.756V-4.40442e-05H474.818V90ZM259.909 90H474.818V-4.40442e-05H259.909V90ZM255.455 90H259.909V-4.40442e-05H255.455V90ZM300.455 45.0452V45H210.455V45.0452H300.455ZM90.0619 255.264C92.4789 164.761 165.721 91.8789 256.37 90.0359L254.54 0.0545362C115.81 2.87501 3.79324 114.346 0.0940127 252.862L90.0619 255.264ZM45 299.063H45.078V209.063H45V299.063ZM90 259.909V254.063H0V259.909H90ZM90 474.818V259.909H0V474.818H90ZM90 689.727V474.818H0V689.727H90ZM90 797.182V689.727H0V797.182H90ZM152.455 859.636C117.962 859.636 90 831.674 90 797.182L0 797.182C7.8916e-05 881.38 68.2563 949.636 152.454 949.636L152.455 859.636ZM259.909 859.636H152.455V949.636H259.909V859.636ZM214.909 797.182V904.636H304.909V797.182H214.909ZM214.909 689.727V797.182H304.909V689.727H214.909ZM214.909 662.923V689.727H304.909V662.923H214.909ZM474.762 429.818C341.65 429.984 231.389 528.844 215.26 657.318L304.559 668.529C315.033 585.098 387.021 519.927 474.874 519.818L474.762 429.818ZM519.818 689.727V474.818H429.818V689.727H519.818ZM519.818 904.636V689.727H429.818V904.636H519.818ZM689.727 859.636H474.818V949.636H689.727V859.636ZM904.636 859.637L689.727 859.636L689.727 949.636L904.636 949.637L904.636 859.637ZM1123.16 859.637H904.636V949.637H1123.16V859.637ZM1126.78 859.636L1123.16 859.637L1123.17 949.637L1126.79 949.636L1126.78 859.636ZM1081.78 904.396V904.636H1171.78V904.396H1081.78ZM1181.99 798.166C1181.5 830.77 1155.96 857.356 1123.8 859.496L1129.77 949.297C1208.45 944.064 1270.77 879.238 1271.98 799.538L1181.99 798.166ZM1227 753.852H1226.99V843.852H1227V753.852ZM1182 797.182V798.852H1272V797.182H1182ZM1182 689.727V797.182H1272V689.727H1182ZM1126.78 734.727H1227V644.727H1126.78V734.727ZM1119.55 734.727L1126.78 734.727L1126.78 644.727L1119.55 644.727L1119.55 734.727ZM1096.44 734.727L1119.55 734.727L1119.55 644.727L1096.44 644.727L1096.44 734.727ZM889.017 734.727H1096.44V644.727H889.017V734.727ZM644.842 493.901C654.073 622.68 756.978 725.395 885.806 734.613L892.228 644.842C807.95 638.812 740.637 571.521 734.612 487.467L644.842 493.901ZM644.727 474.818V490.684H734.727V474.818H644.727ZM644.727 459.509V474.818H734.727V459.509H644.727ZM904.636 214.909C767.161 214.909 654.518 321.3 644.842 456.292L734.612 462.726C740.93 374.581 814.612 304.909 904.636 304.909L904.636 214.909ZM1012.09 214.909H904.636V304.909H1012.09V214.909ZM1016.54 214.909H1012.09V304.909H1016.54V214.909ZM1119.55 214.909H1016.54V304.909H1119.55V214.909ZM1074.55 152.454V259.909H1164.55V152.454H1074.55ZM519.818 270.894V259.909H429.818V270.894H519.818ZM474.818 214.909H259.909V304.909H474.818V214.909ZM214.909 259.909V474.812H304.909V259.909H214.909ZM260.245 519.811C399.12 518.772 512.795 410.27 519.76 273.178L429.876 268.611C425.355 357.6 351.273 429.128 259.573 429.813L260.245 519.811Z" fill="#007EA8" mask="url(#path-1-outside-1_47_80)"/>
</svg>
