<svg width="4246" height="3088" viewBox="0 0 4246 3088" fill="none" xmlns="http://www.w3.org/2000/svg">
<path fill-rule="evenodd" clip-rule="evenodd" d="M3860 386C3860 178.178 3695.76 8.715 3490 0.325531V0H3474.22L3474 -6.10352e-05L3088 0H2772H2316H1903H1544H772H756V0.162506C344.011 8.53851 11.2656 339.656 0.280273 751H0V772V1544V2316V2702C0 2915.18 172.818 3088 386 3088H772V2702V2316V2219.71C819.782 1839.11 1147.12 1544.49 1544 1544V2316V3088H2316L3088 3088H3873L3886 3088V3087.14C4085.09 3073.9 4242.88 2909.71 4245.95 2708H4246V2702V2316H3886H3860H3777H3031.89C2649.13 2288.62 2343.4 1983.27 2316 1601V1544V1489C2344.73 1088.23 2679.39 772.001 3088 772H3474H3490H3860V386ZM1544 811.46V772H772V1543.98C1186.14 1540.88 1523.37 1217.53 1544 811.46Z" fill="#007EA8"/>
</svg>
